<svg width="320" height="320" viewBox="0 0 320 320" fill="none" xmlns="http://www.w3.org/2000/svg">
<g clip-path="url(#clip0_49_2)">
<rect width="320" height="320" fill="white"/>
<path d="M45.8295 262H43.6136L50.0227 244.545H52.2045L58.6136 262H56.3977L51.1818 247.307H51.0455L45.8295 262ZM46.6477 255.182H55.5795V257.057H46.6477V255.182Z" fill="#B10038"/>
<path d="M171.114 73V55.5455H177.216C178.432 55.5455 179.435 55.7557 180.224 56.1761C181.014 56.5909 181.602 57.1506 181.989 57.8551C182.375 58.554 182.568 59.3295 182.568 60.1818C182.568 60.9318 182.435 61.5511 182.168 62.0398C181.906 62.5284 181.56 62.9148 181.128 63.1989C180.702 63.483 180.239 63.6932 179.739 63.8295V64C180.273 64.0341 180.81 64.2216 181.349 64.5625C181.889 64.9034 182.341 65.392 182.705 66.0284C183.068 66.6648 183.25 67.4432 183.25 68.3636C183.25 69.2386 183.051 70.0256 182.653 70.7244C182.256 71.4233 181.628 71.9773 180.77 72.3864C179.912 72.7955 178.795 73 177.42 73H171.114ZM173.227 71.125H177.42C178.801 71.125 179.781 70.858 180.361 70.3239C180.946 69.7841 181.239 69.1307 181.239 68.3636C181.239 67.7727 181.088 67.2273 180.787 66.7273C180.486 66.2216 180.057 65.8182 179.5 65.517C178.943 65.2102 178.284 65.0568 177.523 65.0568H173.227V71.125ZM173.227 63.2159H177.148C177.784 63.2159 178.358 63.0909 178.869 62.8409C179.386 62.5909 179.795 62.2386 180.097 61.7841C180.403 61.3295 180.557 60.7955 180.557 60.1818C180.557 59.4148 180.29 58.7642 179.756 58.2301C179.222 57.6903 178.375 57.4205 177.216 57.4205H173.227V63.2159Z" fill="#B10038"/>
<path d="M84.1136 150.545H86.6364L92.5682 165.034H92.7727L98.7045 150.545H101.227V168H99.25V154.739H99.0795L93.625 168H91.7159L86.2614 154.739H86.0909V168H84.1136V150.545Z" fill="#B10038"/>
<path d="M237.955 150.545V168H235.909L226.398 154.295H226.227V168H224.114V150.545H226.159L235.705 164.284H235.875V150.545H237.955Z" fill="#B10038"/>
<path d="M167.841 200.273C167.841 202.114 167.509 203.705 166.844 205.045C166.179 206.386 165.267 207.42 164.108 208.148C162.949 208.875 161.625 209.239 160.136 209.239C158.648 209.239 157.324 208.875 156.165 208.148C155.006 207.42 154.094 206.386 153.429 205.045C152.764 203.705 152.432 202.114 152.432 200.273C152.432 198.432 152.764 196.841 153.429 195.5C154.094 194.159 155.006 193.125 156.165 192.398C157.324 191.67 158.648 191.307 160.136 191.307C161.625 191.307 162.949 191.67 164.108 192.398C165.267 193.125 166.179 194.159 166.844 195.5C167.509 196.841 167.841 198.432 167.841 200.273ZM165.795 200.273C165.795 198.761 165.543 197.486 165.037 196.446C164.537 195.406 163.858 194.619 163 194.085C162.148 193.551 161.193 193.284 160.136 193.284C159.08 193.284 158.122 193.551 157.264 194.085C156.412 194.619 155.733 195.406 155.227 196.446C154.727 197.486 154.477 198.761 154.477 200.273C154.477 201.784 154.727 203.06 155.227 204.099C155.733 205.139 156.412 205.926 157.264 206.46C158.122 206.994 159.08 207.261 160.136 207.261C161.193 207.261 162.148 206.994 163 206.46C163.858 205.926 164.537 205.139 165.037 204.099C165.543 203.06 165.795 201.784 165.795 200.273Z" fill="#B10038"/>
<path d="M255.159 249H253.045C252.92 248.392 252.702 247.858 252.389 247.398C252.082 246.938 251.707 246.551 251.264 246.239C250.827 245.92 250.341 245.682 249.807 245.523C249.273 245.364 248.716 245.284 248.136 245.284C247.08 245.284 246.122 245.551 245.264 246.085C244.412 246.619 243.733 247.406 243.227 248.446C242.727 249.486 242.477 250.761 242.477 252.273C242.477 253.784 242.727 255.06 243.227 256.099C243.733 257.139 244.412 257.926 245.264 258.46C246.122 258.994 247.08 259.261 248.136 259.261C248.716 259.261 249.273 259.182 249.807 259.023C250.341 258.864 250.827 258.628 251.264 258.315C251.707 257.997 252.082 257.608 252.389 257.148C252.702 256.682 252.92 256.148 253.045 255.545H255.159C255 256.437 254.71 257.236 254.29 257.94C253.869 258.645 253.347 259.244 252.722 259.739C252.097 260.227 251.395 260.599 250.616 260.855C249.844 261.111 249.017 261.239 248.136 261.239C246.648 261.239 245.324 260.875 244.165 260.148C243.006 259.42 242.094 258.386 241.429 257.045C240.764 255.705 240.432 254.114 240.432 252.273C240.432 250.432 240.764 248.841 241.429 247.5C242.094 246.159 243.006 245.125 244.165 244.398C245.324 243.67 246.648 243.307 248.136 243.307C249.017 243.307 249.844 243.435 250.616 243.69C251.395 243.946 252.097 244.321 252.722 244.815C253.347 245.304 253.869 245.901 254.29 246.605C254.71 247.304 255 248.102 255.159 249Z" fill="#B10038"/>
<path d="M176.778 80.9122L248.469 237.001L55.076 237.001L176.778 80.9122Z" stroke="#056624" stroke-width="2"/>
<line x1="248.482" y1="236.855" x2="116.482" y2="156.855" stroke="#056624" stroke-width="2"/>
<line x1="211.452" y1="157.892" x2="57.4518" y2="235.892" stroke="#056624" stroke-width="2"/>
<line x1="199.718" y1="117.354" x2="191.232" y2="125.839" stroke="#B10038"/>
<line x1="201.839" y1="119.475" x2="193.354" y2="127.96" stroke="#B10038"/>
<line x1="231.718" y1="190.354" x2="223.232" y2="198.839" stroke="#B10038"/>
<line x1="233.839" y1="192.475" x2="225.354" y2="200.96" stroke="#B10038"/>
<line x1="82.383" y1="192.679" x2="90.0965" y2="201.871" stroke="#B10038"/>
<line x1="142.383" y1="115.679" x2="150.096" y2="124.871" stroke="#B10038"/>
<circle cx="160.5" cy="183.5" r="2.5" fill="#B10038"/>
</g>
<defs>
<clipPath id="clip0_49_2">
<rect width="320" height="320" fill="white"/>
</clipPath>
</defs>
</svg>
