<svg width="320" height="320" viewBox="0 0 320 320" fill="none" xmlns="http://www.w3.org/2000/svg">
<rect width="320" height="320" fill="white"/>
<path d="M205.296 80.1676L43.9423 225.17L273.61 222.335L205.296 80.1676Z" stroke="#056624" stroke-width="2"/>
<path d="M38.8295 254H36.6136L43.0227 236.545H45.2045L51.6136 254H49.3977L44.1818 239.307H44.0455L38.8295 254ZM39.6477 247.182H48.5795V249.057H39.6477V247.182Z" fill="#B10038"/>
<path d="M200.114 71V53.5455H206.216C207.432 53.5455 208.435 53.7557 209.224 54.1761C210.014 54.5909 210.602 55.1506 210.989 55.8551C211.375 56.554 211.568 57.3295 211.568 58.1818C211.568 58.9318 211.435 59.5511 211.168 60.0398C210.906 60.5284 210.56 60.9148 210.128 61.1989C209.702 61.483 209.239 61.6932 208.739 61.8295V62C209.273 62.0341 209.81 62.2216 210.349 62.5625C210.889 62.9034 211.341 63.392 211.705 64.0284C212.068 64.6648 212.25 65.4432 212.25 66.3636C212.25 67.2386 212.051 68.0256 211.653 68.7244C211.256 69.4233 210.628 69.9773 209.77 70.3864C208.912 70.7955 207.795 71 206.42 71H200.114ZM202.227 69.125H206.42C207.801 69.125 208.781 68.858 209.361 68.3239C209.946 67.7841 210.239 67.1307 210.239 66.3636C210.239 65.7727 210.088 65.2273 209.787 64.7273C209.486 64.2216 209.057 63.8182 208.5 63.517C207.943 63.2102 207.284 63.0568 206.523 63.0568H202.227V69.125ZM202.227 61.2159H206.148C206.784 61.2159 207.358 61.0909 207.869 60.8409C208.386 60.5909 208.795 60.2386 209.097 59.7841C209.403 59.3295 209.557 58.7955 209.557 58.1818C209.557 57.4148 209.29 56.7642 208.756 56.2301C208.222 55.6903 207.375 55.4205 206.216 55.4205H202.227V61.2159Z" fill="#B10038"/>
<path d="M282.159 240H280.045C279.92 239.392 279.702 238.858 279.389 238.398C279.082 237.938 278.707 237.551 278.264 237.239C277.827 236.92 277.341 236.682 276.807 236.523C276.273 236.364 275.716 236.284 275.136 236.284C274.08 236.284 273.122 236.551 272.264 237.085C271.412 237.619 270.733 238.406 270.227 239.446C269.727 240.486 269.477 241.761 269.477 243.273C269.477 244.784 269.727 246.06 270.227 247.099C270.733 248.139 271.412 248.926 272.264 249.46C273.122 249.994 274.08 250.261 275.136 250.261C275.716 250.261 276.273 250.182 276.807 250.023C277.341 249.864 277.827 249.628 278.264 249.315C278.707 248.997 279.082 248.608 279.389 248.148C279.702 247.682 279.92 247.148 280.045 246.545H282.159C282 247.437 281.71 248.236 281.29 248.94C280.869 249.645 280.347 250.244 279.722 250.739C279.097 251.227 278.395 251.599 277.616 251.855C276.844 252.111 276.017 252.239 275.136 252.239C273.648 252.239 272.324 251.875 271.165 251.148C270.006 250.42 269.094 249.386 268.429 248.045C267.764 246.705 267.432 245.114 267.432 243.273C267.432 241.432 267.764 239.841 268.429 238.5C269.094 237.159 270.006 236.125 271.165 235.398C272.324 234.67 273.648 234.307 275.136 234.307C276.017 234.307 276.844 234.435 277.616 234.69C278.395 234.946 279.097 235.321 279.722 235.815C280.347 236.304 280.869 236.901 281.29 237.605C281.71 238.304 282 239.102 282.159 240Z" fill="#B10038"/>
</svg>
