<svg width="320" height="320" viewBox="0 0 320 320" fill="none" xmlns="http://www.w3.org/2000/svg">
<g clip-path="url(#clip0_21_2)">
<rect width="320" height="320" fill="white"/>
<path d="M50.1858 44.3292L256.743 296.74L237.025 117.078L50.1858 44.3292Z" stroke="#056624" stroke-width="2"/>
<path d="M32.8295 54H30.6136L37.0227 36.5455H39.2045L45.6136 54H43.3977L38.1818 39.3068H38.0455L32.8295 54ZM33.6477 47.1818H42.5795V49.0568H33.6477V47.1818Z" fill="#B10038"/>
<path d="M245.114 117V99.5455H251.216C252.432 99.5455 253.435 99.7557 254.224 100.176C255.014 100.591 255.602 101.151 255.989 101.855C256.375 102.554 256.568 103.33 256.568 104.182C256.568 104.932 256.435 105.551 256.168 106.04C255.906 106.528 255.56 106.915 255.128 107.199C254.702 107.483 254.239 107.693 253.739 107.83V108C254.273 108.034 254.81 108.222 255.349 108.562C255.889 108.903 256.341 109.392 256.705 110.028C257.068 110.665 257.25 111.443 257.25 112.364C257.25 113.239 257.051 114.026 256.653 114.724C256.256 115.423 255.628 115.977 254.77 116.386C253.912 116.795 252.795 117 251.42 117H245.114ZM247.227 115.125H251.42C252.801 115.125 253.781 114.858 254.361 114.324C254.946 113.784 255.239 113.131 255.239 112.364C255.239 111.773 255.088 111.227 254.787 110.727C254.486 110.222 254.057 109.818 253.5 109.517C252.943 109.21 252.284 109.057 251.523 109.057H247.227V115.125ZM247.227 107.216H251.148C251.784 107.216 252.358 107.091 252.869 106.841C253.386 106.591 253.795 106.239 254.097 105.784C254.403 105.33 254.557 104.795 254.557 104.182C254.557 103.415 254.29 102.764 253.756 102.23C253.222 101.69 252.375 101.42 251.216 101.42H247.227V107.216Z" fill="#B10038"/>
<path d="M281.159 290H279.045C278.92 289.392 278.702 288.858 278.389 288.398C278.082 287.938 277.707 287.551 277.264 287.239C276.827 286.92 276.341 286.682 275.807 286.523C275.273 286.364 274.716 286.284 274.136 286.284C273.08 286.284 272.122 286.551 271.264 287.085C270.412 287.619 269.733 288.406 269.227 289.446C268.727 290.486 268.477 291.761 268.477 293.273C268.477 294.784 268.727 296.06 269.227 297.099C269.733 298.139 270.412 298.926 271.264 299.46C272.122 299.994 273.08 300.261 274.136 300.261C274.716 300.261 275.273 300.182 275.807 300.023C276.341 299.864 276.827 299.628 277.264 299.315C277.707 298.997 278.082 298.608 278.389 298.148C278.702 297.682 278.92 297.148 279.045 296.545H281.159C281 297.437 280.71 298.236 280.29 298.94C279.869 299.645 279.347 300.244 278.722 300.739C278.097 301.227 277.395 301.599 276.616 301.855C275.844 302.111 275.017 302.239 274.136 302.239C272.648 302.239 271.324 301.875 270.165 301.148C269.006 300.42 268.094 299.386 267.429 298.045C266.764 296.705 266.432 295.114 266.432 293.273C266.432 291.432 266.764 289.841 267.429 288.5C268.094 287.159 269.006 286.125 270.165 285.398C271.324 284.67 272.648 284.307 274.136 284.307C275.017 284.307 275.844 284.435 276.616 284.69C277.395 284.946 278.097 285.321 278.722 285.815C279.347 286.304 279.869 286.901 280.29 287.605C280.71 288.304 281 289.102 281.159 290Z" fill="#B10038"/>
</g>
<defs>
<clipPath id="clip0_21_2">
<rect width="320" height="320" fill="white"/>
</clipPath>
</defs>
</svg>
