<svg width="320" height="320" viewBox="0 0 320 320" fill="none" xmlns="http://www.w3.org/2000/svg">
<g clip-path="url(#clip0_21_7)">
<rect width="320" height="320" fill="white"/>
<path d="M17.9838 209.959L303.604 84.3977L220.463 209.958L17.9838 209.959Z" stroke="#056624" stroke-width="2"/>
<path d="M15.8295 235H13.6136L20.0227 217.545H22.2045L28.6136 235H26.3977L21.1818 220.307H21.0455L15.8295 235ZM16.6477 228.182H25.5795V230.057H16.6477V228.182Z" fill="#B10038"/>
<path d="M289.114 77V59.5455H295.216C296.432 59.5455 297.435 59.7557 298.224 60.1761C299.014 60.5909 299.602 61.1506 299.989 61.8551C300.375 62.554 300.568 63.3295 300.568 64.1818C300.568 64.9318 300.435 65.5511 300.168 66.0398C299.906 66.5284 299.56 66.9148 299.128 67.1989C298.702 67.483 298.239 67.6932 297.739 67.8295V68C298.273 68.0341 298.81 68.2216 299.349 68.5625C299.889 68.9034 300.341 69.392 300.705 70.0284C301.068 70.6648 301.25 71.4432 301.25 72.3636C301.25 73.2386 301.051 74.0256 300.653 74.7244C300.256 75.4233 299.628 75.9773 298.77 76.3864C297.912 76.7955 296.795 77 295.42 77H289.114ZM291.227 75.125H295.42C296.801 75.125 297.781 74.858 298.361 74.3239C298.946 73.7841 299.239 73.1307 299.239 72.3636C299.239 71.7727 299.088 71.2273 298.787 70.7273C298.486 70.2216 298.057 69.8182 297.5 69.517C296.943 69.2102 296.284 69.0568 295.523 69.0568H291.227V75.125ZM291.227 67.2159H295.148C295.784 67.2159 296.358 67.0909 296.869 66.8409C297.386 66.5909 297.795 66.2386 298.097 65.7841C298.403 65.3295 298.557 64.7955 298.557 64.1818C298.557 63.4148 298.29 62.7642 297.756 62.2301C297.222 61.6903 296.375 61.4205 295.216 61.4205H291.227V67.2159Z" fill="#B10038"/>
<path d="M234.159 221H232.045C231.92 220.392 231.702 219.858 231.389 219.398C231.082 218.938 230.707 218.551 230.264 218.239C229.827 217.92 229.341 217.682 228.807 217.523C228.273 217.364 227.716 217.284 227.136 217.284C226.08 217.284 225.122 217.551 224.264 218.085C223.412 218.619 222.733 219.406 222.227 220.446C221.727 221.486 221.477 222.761 221.477 224.273C221.477 225.784 221.727 227.06 222.227 228.099C222.733 229.139 223.412 229.926 224.264 230.46C225.122 230.994 226.08 231.261 227.136 231.261C227.716 231.261 228.273 231.182 228.807 231.023C229.341 230.864 229.827 230.628 230.264 230.315C230.707 229.997 231.082 229.608 231.389 229.148C231.702 228.682 231.92 228.148 232.045 227.545H234.159C234 228.437 233.71 229.236 233.29 229.94C232.869 230.645 232.347 231.244 231.722 231.739C231.097 232.227 230.395 232.599 229.616 232.855C228.844 233.111 228.017 233.239 227.136 233.239C225.648 233.239 224.324 232.875 223.165 232.148C222.006 231.42 221.094 230.386 220.429 229.045C219.764 227.705 219.432 226.114 219.432 224.273C219.432 222.432 219.764 220.841 220.429 219.5C221.094 218.159 222.006 217.125 223.165 216.398C224.324 215.67 225.648 215.307 227.136 215.307C228.017 215.307 228.844 215.435 229.616 215.69C230.395 215.946 231.097 216.321 231.722 216.815C232.347 217.304 232.869 217.901 233.29 218.605C233.71 219.304 234 220.102 234.159 221Z" fill="#B10038"/>
</g>
<defs>
<clipPath id="clip0_21_7">
<rect width="320" height="320" fill="white"/>
</clipPath>
</defs>
</svg>
