<svg width="320" height="320" viewBox="0 0 320 320" fill="none" xmlns="http://www.w3.org/2000/svg">
<rect width="320" height="320" fill="white"/>
<path d="M225.119 54.8022L79.1186 233.235L225.119 233.235L225.119 54.8022Z" stroke="#056624" stroke-width="2"/>
<path d="M221.83 46H219.614L226.023 28.5455H228.205L234.614 46H232.398L227.182 31.3068H227.045L221.83 46ZM222.648 39.1818H231.58V41.0568H222.648V39.1818Z" fill="#B10038"/>
<path d="M221.114 260V242.545H227.216C228.432 242.545 229.435 242.756 230.224 243.176C231.014 243.591 231.602 244.151 231.989 244.855C232.375 245.554 232.568 246.33 232.568 247.182C232.568 247.932 232.435 248.551 232.168 249.04C231.906 249.528 231.56 249.915 231.128 250.199C230.702 250.483 230.239 250.693 229.739 250.83V251C230.273 251.034 230.81 251.222 231.349 251.562C231.889 251.903 232.341 252.392 232.705 253.028C233.068 253.665 233.25 254.443 233.25 255.364C233.25 256.239 233.051 257.026 232.653 257.724C232.256 258.423 231.628 258.977 230.77 259.386C229.912 259.795 228.795 260 227.42 260H221.114ZM223.227 258.125H227.42C228.801 258.125 229.781 257.858 230.361 257.324C230.946 256.784 231.239 256.131 231.239 255.364C231.239 254.773 231.088 254.227 230.787 253.727C230.486 253.222 230.057 252.818 229.5 252.517C228.943 252.21 228.284 252.057 227.523 252.057H223.227V258.125ZM223.227 250.216H227.148C227.784 250.216 228.358 250.091 228.869 249.841C229.386 249.591 229.795 249.239 230.097 248.784C230.403 248.33 230.557 247.795 230.557 247.182C230.557 246.415 230.29 245.764 229.756 245.23C229.222 244.69 228.375 244.42 227.216 244.42H223.227V250.216Z" fill="#B10038"/>
<path d="M81.1591 248H79.0455C78.9205 247.392 78.7017 246.858 78.3892 246.398C78.0824 245.938 77.7074 245.551 77.2642 245.239C76.8267 244.92 76.3409 244.682 75.8068 244.523C75.2727 244.364 74.7159 244.284 74.1364 244.284C73.0795 244.284 72.1222 244.551 71.2642 245.085C70.4119 245.619 69.733 246.406 69.2273 247.446C68.7273 248.486 68.4773 249.761 68.4773 251.273C68.4773 252.784 68.7273 254.06 69.2273 255.099C69.733 256.139 70.4119 256.926 71.2642 257.46C72.1222 257.994 73.0795 258.261 74.1364 258.261C74.7159 258.261 75.2727 258.182 75.8068 258.023C76.3409 257.864 76.8267 257.628 77.2642 257.315C77.7074 256.997 78.0824 256.608 78.3892 256.148C78.7017 255.682 78.9205 255.148 79.0455 254.545H81.1591C81 255.437 80.7102 256.236 80.2898 256.94C79.8693 257.645 79.3466 258.244 78.7216 258.739C78.0966 259.227 77.3949 259.599 76.6165 259.855C75.8438 260.111 75.017 260.239 74.1364 260.239C72.6477 260.239 71.3239 259.875 70.1648 259.148C69.0057 258.42 68.0938 257.386 67.429 256.045C66.7642 254.705 66.4318 253.114 66.4318 251.273C66.4318 249.432 66.7642 247.841 67.429 246.5C68.0938 245.159 69.0057 244.125 70.1648 243.398C71.3239 242.67 72.6477 242.307 74.1364 242.307C75.017 242.307 75.8438 242.435 76.6165 242.69C77.3949 242.946 78.0966 243.321 78.7216 243.815C79.3466 244.304 79.8693 244.901 80.2898 245.605C80.7102 246.304 81 247.102 81.1591 248Z" fill="#B10038"/>
<path d="M225 219H210V233" stroke="#056624"/>
</svg>
