<svg width="320" height="320" viewBox="0 0 320 320" fill="none" xmlns="http://www.w3.org/2000/svg">
<rect width="320" height="320" fill="white"/>
<path d="M94.2397 59.8022L240.24 238.235L94.2398 238.235L94.2397 59.8022Z" stroke="#056624" stroke-width="2"/>
<path d="M87.8295 261H85.6136L92.0227 243.545H94.2045L100.614 261H98.3977L93.1818 246.307H93.0455L87.8295 261ZM88.6477 254.182H97.5795V256.057H88.6477V254.182Z" fill="#B10038"/>
<path d="M88.1136 51V33.5455H94.2159C95.4318 33.5455 96.4347 33.7557 97.2244 34.1761C98.0142 34.5909 98.6023 35.1506 98.9886 35.8551C99.375 36.554 99.5682 37.3295 99.5682 38.1818C99.5682 38.9318 99.4347 39.5511 99.1676 40.0398C98.9063 40.5284 98.5597 40.9148 98.1278 41.1989C97.7017 41.483 97.2386 41.6932 96.7386 41.8295V42C97.2727 42.0341 97.8097 42.2216 98.3494 42.5625C98.8892 42.9034 99.3409 43.392 99.7045 44.0284C100.068 44.6648 100.25 45.4432 100.25 46.3636C100.25 47.2386 100.051 48.0256 99.6534 48.7244C99.2557 49.4233 98.6278 49.9773 97.7699 50.3864C96.9119 50.7955 95.7955 51 94.4205 51H88.1136ZM90.2273 49.125H94.4205C95.8011 49.125 96.7813 48.858 97.3608 48.3239C97.946 47.7841 98.2386 47.1307 98.2386 46.3636C98.2386 45.7727 98.0881 45.2273 97.7869 44.7273C97.4858 44.2216 97.0568 43.8182 96.5 43.517C95.9432 43.2102 95.2841 43.0568 94.5227 43.0568H90.2273V49.125ZM90.2273 41.2159H94.1477C94.7841 41.2159 95.358 41.0909 95.8693 40.8409C96.3864 40.5909 96.7955 40.2386 97.0966 39.7841C97.4034 39.3295 97.5568 38.7955 97.5568 38.1818C97.5568 37.4148 97.2898 36.7642 96.7557 36.2301C96.2216 35.6903 95.375 35.4205 94.2159 35.4205H90.2273V41.2159Z" fill="#B10038"/>
<path d="M251.159 249H249.045C248.92 248.392 248.702 247.858 248.389 247.398C248.082 246.938 247.707 246.551 247.264 246.239C246.827 245.92 246.341 245.682 245.807 245.523C245.273 245.364 244.716 245.284 244.136 245.284C243.08 245.284 242.122 245.551 241.264 246.085C240.412 246.619 239.733 247.406 239.227 248.446C238.727 249.486 238.477 250.761 238.477 252.273C238.477 253.784 238.727 255.06 239.227 256.099C239.733 257.139 240.412 257.926 241.264 258.46C242.122 258.994 243.08 259.261 244.136 259.261C244.716 259.261 245.273 259.182 245.807 259.023C246.341 258.864 246.827 258.628 247.264 258.315C247.707 257.997 248.082 257.608 248.389 257.148C248.702 256.682 248.92 256.148 249.045 255.545H251.159C251 256.437 250.71 257.236 250.29 257.94C249.869 258.645 249.347 259.244 248.722 259.739C248.097 260.227 247.395 260.599 246.616 260.855C245.844 261.111 245.017 261.239 244.136 261.239C242.648 261.239 241.324 260.875 240.165 260.148C239.006 259.42 238.094 258.386 237.429 257.045C236.764 255.705 236.432 254.114 236.432 252.273C236.432 250.432 236.764 248.841 237.429 247.5C238.094 246.159 239.006 245.125 240.165 244.398C241.324 243.67 242.648 243.307 244.136 243.307C245.017 243.307 245.844 243.435 246.616 243.69C247.395 243.946 248.097 244.321 248.722 244.815C249.347 245.304 249.869 245.901 250.29 246.605C250.71 247.304 251 248.102 251.159 249Z" fill="#B10038"/>
<path d="M94.3588 224H109.359V238" stroke="#056624"/>
</svg>
