<svg width="320" height="320" viewBox="0 0 320 320" fill="none" xmlns="http://www.w3.org/2000/svg">
<rect width="320" height="320" fill="white"/>
<path d="M237.205 60.6869L154.609 243.7L93.4018 153.784L237.205 60.6869Z" stroke="#056624" stroke-width="2"/>
<path d="M245.83 58H243.614L250.023 40.5455H252.205L258.614 58H256.398L251.182 43.3068H251.045L245.83 58ZM246.648 51.1818H255.58V53.0568H246.648V51.1818Z" fill="#B10038"/>
<path d="M149.114 269V251.545H155.216C156.432 251.545 157.435 251.756 158.224 252.176C159.014 252.591 159.602 253.151 159.989 253.855C160.375 254.554 160.568 255.33 160.568 256.182C160.568 256.932 160.435 257.551 160.168 258.04C159.906 258.528 159.56 258.915 159.128 259.199C158.702 259.483 158.239 259.693 157.739 259.83V260C158.273 260.034 158.81 260.222 159.349 260.562C159.889 260.903 160.341 261.392 160.705 262.028C161.068 262.665 161.25 263.443 161.25 264.364C161.25 265.239 161.051 266.026 160.653 266.724C160.256 267.423 159.628 267.977 158.77 268.386C157.912 268.795 156.795 269 155.42 269H149.114ZM151.227 267.125H155.42C156.801 267.125 157.781 266.858 158.361 266.324C158.946 265.784 159.239 265.131 159.239 264.364C159.239 263.773 159.088 263.227 158.787 262.727C158.486 262.222 158.057 261.818 157.5 261.517C156.943 261.21 156.284 261.057 155.523 261.057H151.227V267.125ZM151.227 259.216H155.148C155.784 259.216 156.358 259.091 156.869 258.841C157.386 258.591 157.795 258.239 158.097 257.784C158.403 257.33 158.557 256.795 158.557 256.182C158.557 255.415 158.29 254.764 157.756 254.23C157.222 253.69 156.375 253.42 155.216 253.42H151.227V259.216Z" fill="#B10038"/>
<path d="M87.1591 148H85.0455C84.9205 147.392 84.7017 146.858 84.3892 146.398C84.0824 145.938 83.7074 145.551 83.2642 145.239C82.8267 144.92 82.3409 144.682 81.8068 144.523C81.2727 144.364 80.7159 144.284 80.1364 144.284C79.0795 144.284 78.1222 144.551 77.2642 145.085C76.4119 145.619 75.733 146.406 75.2273 147.446C74.7273 148.486 74.4773 149.761 74.4773 151.273C74.4773 152.784 74.7273 154.06 75.2273 155.099C75.733 156.139 76.4119 156.926 77.2642 157.46C78.1222 157.994 79.0795 158.261 80.1364 158.261C80.7159 158.261 81.2727 158.182 81.8068 158.023C82.3409 157.864 82.8267 157.628 83.2642 157.315C83.7074 156.997 84.0824 156.608 84.3892 156.148C84.7017 155.682 84.9205 155.148 85.0455 154.545H87.1591C87 155.437 86.7102 156.236 86.2898 156.94C85.8693 157.645 85.3466 158.244 84.7216 158.739C84.0966 159.227 83.3949 159.599 82.6165 159.855C81.8438 160.111 81.017 160.239 80.1364 160.239C78.6477 160.239 77.3239 159.875 76.1648 159.148C75.0057 158.42 74.0938 157.386 73.429 156.045C72.7642 154.705 72.4318 153.114 72.4318 151.273C72.4318 149.432 72.7642 147.841 73.429 146.5C74.0938 145.159 75.0057 144.125 76.1648 143.398C77.3239 142.67 78.6477 142.307 80.1364 142.307C81.017 142.307 81.8438 142.435 82.6165 142.69C83.3949 142.946 84.0966 143.321 84.7216 143.815C85.3466 144.304 85.8693 144.901 86.2898 145.605C86.7102 146.304 87 147.102 87.1591 148Z" fill="#B10038"/>
<path d="M104.546 146L113.029 158.371L101.483 166.288" stroke="#056624"/>
</svg>
