<svg width="320" height="320" viewBox="0 0 320 320" fill="none" xmlns="http://www.w3.org/2000/svg">
<rect width="320" height="320" fill="white"/>
<path d="M273.243 212.163L42.1074 211.593L155.245 94.9223L273.243 212.163Z" stroke="#056624" stroke-width="2"/>
<path d="M273.562 235H271.346L277.755 217.545H279.937L286.346 235H284.13L278.915 220.307H278.778L273.562 235ZM274.38 228.182H283.312V230.057H274.38V228.182Z" fill="#B10038"/>
<path d="M33.8464 235V217.545H39.9486C41.1645 217.545 42.1674 217.756 42.9572 218.176C43.7469 218.591 44.335 219.151 44.7214 219.855C45.1077 220.554 45.3009 221.33 45.3009 222.182C45.3009 222.932 45.1674 223.551 44.9003 224.04C44.639 224.528 44.2924 224.915 43.8606 225.199C43.4344 225.483 42.9714 225.693 42.4714 225.83V226C43.0055 226.034 43.5424 226.222 44.0822 226.562C44.6219 226.903 45.0736 227.392 45.4373 228.028C45.8009 228.665 45.9827 229.443 45.9827 230.364C45.9827 231.239 45.7839 232.026 45.3861 232.724C44.9884 233.423 44.3606 233.977 43.5026 234.386C42.6447 234.795 41.5282 235 40.1532 235H33.8464ZM35.96 233.125H40.1532C41.5339 233.125 42.514 232.858 43.0935 232.324C43.6788 231.784 43.9714 231.131 43.9714 230.364C43.9714 229.773 43.8208 229.227 43.5197 228.727C43.2185 228.222 42.7895 227.818 42.2327 227.517C41.6759 227.21 41.0168 227.057 40.2555 227.057H35.96V233.125ZM35.96 225.216H39.8805C40.5168 225.216 41.0907 225.091 41.602 224.841C42.1191 224.591 42.5282 224.239 42.8293 223.784C43.1361 223.33 43.2895 222.795 43.2895 222.182C43.2895 221.415 43.0225 220.764 42.4884 220.23C41.9543 219.69 41.1077 219.42 39.9486 219.42H35.96V225.216Z" fill="#B10038"/>
<path d="M162.892 75H160.778C160.653 74.392 160.434 73.858 160.122 73.3977C159.815 72.9375 159.44 72.5511 158.997 72.2386C158.559 71.9205 158.074 71.6818 157.54 71.5227C157.005 71.3636 156.449 71.2841 155.869 71.2841C154.812 71.2841 153.855 71.5511 152.997 72.0852C152.145 72.6193 151.466 73.4062 150.96 74.446C150.46 75.4858 150.21 76.7614 150.21 78.2727C150.21 79.7841 150.46 81.0597 150.96 82.0994C151.466 83.1392 152.145 83.9261 152.997 84.4602C153.855 84.9943 154.812 85.2614 155.869 85.2614C156.449 85.2614 157.005 85.1818 157.54 85.0227C158.074 84.8636 158.559 84.6278 158.997 84.3153C159.44 83.9972 159.815 83.608 160.122 83.1477C160.434 82.6818 160.653 82.1477 160.778 81.5455H162.892C162.733 82.4375 162.443 83.2358 162.023 83.9403C161.602 84.6449 161.079 85.2443 160.454 85.7386C159.829 86.2273 159.128 86.5994 158.349 86.8551C157.576 87.1108 156.75 87.2386 155.869 87.2386C154.38 87.2386 153.057 86.875 151.898 86.1477C150.738 85.4205 149.826 84.3864 149.162 83.0455C148.497 81.7045 148.165 80.1136 148.165 78.2727C148.165 76.4318 148.497 74.8409 149.162 73.5C149.826 72.1591 150.738 71.125 151.898 70.3977C153.057 69.6705 154.38 69.3068 155.869 69.3068C156.75 69.3068 157.576 69.4347 158.349 69.6903C159.128 69.946 159.829 70.321 160.454 70.8153C161.079 71.304 161.602 71.9006 162.023 72.6051C162.443 73.304 162.733 74.1023 162.892 75Z" fill="#B10038"/>
<path d="M165.203 104.556L154.964 115.518L144.733 105.962" stroke="#056624"/>
<line x1="95.383" y1="147.679" x2="103.096" y2="156.871" stroke="#B10038"/>
<line x1="216.514" y1="148.383" x2="207.321" y2="156.096" stroke="#B10038"/>
</svg>
