<svg width="320" height="320" viewBox="0 0 320 320" fill="none" xmlns="http://www.w3.org/2000/svg">
<g clip-path="url(#clip0_45_10)">
<rect width="320" height="320" fill="white"/>
<path d="M37.8295 246H35.6136L42.0227 228.545H44.2045L50.6136 246H48.3977L43.1818 231.307H43.0455L37.8295 246ZM38.6477 239.182H47.5795V241.057H38.6477V239.182Z" fill="#B10038"/>
<path d="M165.114 72V54.5455H171.216C172.432 54.5455 173.435 54.7557 174.224 55.1761C175.014 55.5909 175.602 56.1506 175.989 56.8551C176.375 57.554 176.568 58.3295 176.568 59.1818C176.568 59.9318 176.435 60.5511 176.168 61.0398C175.906 61.5284 175.56 61.9148 175.128 62.1989C174.702 62.483 174.239 62.6932 173.739 62.8295V63C174.273 63.0341 174.81 63.2216 175.349 63.5625C175.889 63.9034 176.341 64.392 176.705 65.0284C177.068 65.6648 177.25 66.4432 177.25 67.3636C177.25 68.2386 177.051 69.0256 176.653 69.7244C176.256 70.4233 175.628 70.9773 174.77 71.3864C173.912 71.7955 172.795 72 171.42 72H165.114ZM167.227 70.125H171.42C172.801 70.125 173.781 69.858 174.361 69.3239C174.946 68.7841 175.239 68.1307 175.239 67.3636C175.239 66.7727 175.088 66.2273 174.787 65.7273C174.486 65.2216 174.057 64.8182 173.5 64.517C172.943 64.2102 172.284 64.0568 171.523 64.0568H167.227V70.125ZM167.227 62.2159H171.148C171.784 62.2159 172.358 62.0909 172.869 61.8409C173.386 61.5909 173.795 61.2386 174.097 60.7841C174.403 60.3295 174.557 59.7955 174.557 59.1818C174.557 58.4148 174.29 57.7642 173.756 57.2301C173.222 56.6903 172.375 56.4205 171.216 56.4205H167.227V62.2159Z" fill="#B10038"/>
<path d="M198.5 246H193.114V228.545H198.739C200.432 228.545 201.881 228.895 203.085 229.594C204.29 230.287 205.213 231.284 205.855 232.585C206.497 233.881 206.818 235.432 206.818 237.239C206.818 239.057 206.494 240.622 205.847 241.935C205.199 243.241 204.256 244.247 203.017 244.952C201.778 245.651 200.273 246 198.5 246ZM195.227 244.125H198.364C199.807 244.125 201.003 243.847 201.952 243.29C202.901 242.733 203.608 241.94 204.074 240.912C204.54 239.884 204.773 238.659 204.773 237.239C204.773 235.83 204.543 234.616 204.082 233.599C203.622 232.577 202.935 231.793 202.02 231.247C201.105 230.696 199.966 230.42 198.602 230.42H195.227V244.125Z" fill="#B10038"/>
<path d="M275.159 234H273.045C272.92 233.392 272.702 232.858 272.389 232.398C272.082 231.938 271.707 231.551 271.264 231.239C270.827 230.92 270.341 230.682 269.807 230.523C269.273 230.364 268.716 230.284 268.136 230.284C267.08 230.284 266.122 230.551 265.264 231.085C264.412 231.619 263.733 232.406 263.227 233.446C262.727 234.486 262.477 235.761 262.477 237.273C262.477 238.784 262.727 240.06 263.227 241.099C263.733 242.139 264.412 242.926 265.264 243.46C266.122 243.994 267.08 244.261 268.136 244.261C268.716 244.261 269.273 244.182 269.807 244.023C270.341 243.864 270.827 243.628 271.264 243.315C271.707 242.997 272.082 242.608 272.389 242.148C272.702 241.682 272.92 241.148 273.045 240.545H275.159C275 241.437 274.71 242.236 274.29 242.94C273.869 243.645 273.347 244.244 272.722 244.739C272.097 245.227 271.395 245.599 270.616 245.855C269.844 246.111 269.017 246.239 268.136 246.239C266.648 246.239 265.324 245.875 264.165 245.148C263.006 244.42 262.094 243.386 261.429 242.045C260.764 240.705 260.432 239.114 260.432 237.273C260.432 235.432 260.764 233.841 261.429 232.5C262.094 231.159 263.006 230.125 264.165 229.398C265.324 228.67 266.648 228.307 268.136 228.307C269.017 228.307 269.844 228.435 270.616 228.69C271.395 228.946 272.097 229.321 272.722 229.815C273.347 230.304 273.869 230.901 274.29 231.605C274.71 232.304 275 233.102 275.159 234Z" fill="#B10038"/>
<path d="M170.909 79.6237L269.087 221L47.2322 221.001L170.909 79.6237Z" stroke="#056624" stroke-width="2"/>
<line x1="198.018" y1="221.189" x2="171.018" y2="81.1894" stroke="#056624" stroke-width="2"/>
<line x1="171" y1="81" x2="171" y2="221" stroke="#B10038" stroke-width="2" stroke-dasharray="7 7"/>
<path d="M170 206H155V220" stroke="#B10038"/>
<path d="M164.114 246V228.545H166.227V236.318H175.534V228.545H177.648V246H175.534V238.193H166.227V246H164.114Z" fill="#056624"/>
</g>
<defs>
<clipPath id="clip0_45_10">
<rect width="320" height="320" fill="white"/>
</clipPath>
</defs>
</svg>
