<svg width="320" height="320" viewBox="0 0 320 320" fill="none" xmlns="http://www.w3.org/2000/svg">
<rect width="320" height="320" fill="white"/>
<path d="M59.8295 246H57.6136L64.0227 228.545H66.2045L72.6136 246H70.3977L65.1818 231.307H65.0455L59.8295 246ZM60.6477 239.182H69.5795V241.057H60.6477V239.182Z" fill="#B10038"/>
<path d="M116.114 85V67.5455H122.216C123.432 67.5455 124.435 67.7557 125.224 68.1761C126.014 68.5909 126.602 69.1506 126.989 69.8551C127.375 70.554 127.568 71.3295 127.568 72.1818C127.568 72.9318 127.435 73.5511 127.168 74.0398C126.906 74.5284 126.56 74.9148 126.128 75.1989C125.702 75.483 125.239 75.6932 124.739 75.8295V76C125.273 76.0341 125.81 76.2216 126.349 76.5625C126.889 76.9034 127.341 77.392 127.705 78.0284C128.068 78.6648 128.25 79.4432 128.25 80.3636C128.25 81.2386 128.051 82.0256 127.653 82.7244C127.256 83.4233 126.628 83.9773 125.77 84.3864C124.912 84.7955 123.795 85 122.42 85H116.114ZM118.227 83.125H122.42C123.801 83.125 124.781 82.858 125.361 82.3239C125.946 81.7841 126.239 81.1307 126.239 80.3636C126.239 79.7727 126.088 79.2273 125.787 78.7273C125.486 78.2216 125.057 77.8182 124.5 77.517C123.943 77.2102 123.284 77.0568 122.523 77.0568H118.227V83.125ZM118.227 75.2159H122.148C122.784 75.2159 123.358 75.0909 123.869 74.8409C124.386 74.5909 124.795 74.2386 125.097 73.7841C125.403 73.3295 125.557 72.7955 125.557 72.1818C125.557 71.4148 125.29 70.7642 124.756 70.2301C124.222 69.6903 123.375 69.4205 122.216 69.4205H118.227V75.2159Z" fill="#B10038"/>
<path d="M72.1136 137.545H74.6364L80.5682 152.034H80.7727L86.7045 137.545H89.2273V155H87.25V141.739H87.0795L81.625 155H79.7159L74.2614 141.739H74.0909V155H72.1136V137.545Z" fill="#B10038"/>
<path d="M208.955 137.545V155H206.909L197.398 141.295H197.227V155H195.114V137.545H197.159L206.705 151.284H206.875V137.545H208.955Z" fill="#B10038"/>
<path d="M269.159 233H267.045C266.92 232.392 266.702 231.858 266.389 231.398C266.082 230.938 265.707 230.551 265.264 230.239C264.827 229.92 264.341 229.682 263.807 229.523C263.273 229.364 262.716 229.284 262.136 229.284C261.08 229.284 260.122 229.551 259.264 230.085C258.412 230.619 257.733 231.406 257.227 232.446C256.727 233.486 256.477 234.761 256.477 236.273C256.477 237.784 256.727 239.06 257.227 240.099C257.733 241.139 258.412 241.926 259.264 242.46C260.122 242.994 261.08 243.261 262.136 243.261C262.716 243.261 263.273 243.182 263.807 243.023C264.341 242.864 264.827 242.628 265.264 242.315C265.707 241.997 266.082 241.608 266.389 241.148C266.702 240.682 266.92 240.148 267.045 239.545H269.159C269 240.437 268.71 241.236 268.29 241.94C267.869 242.645 267.347 243.244 266.722 243.739C266.097 244.227 265.395 244.599 264.616 244.855C263.844 245.111 263.017 245.239 262.136 245.239C260.648 245.239 259.324 244.875 258.165 244.148C257.006 243.42 256.094 242.386 255.429 241.045C254.764 239.705 254.432 238.114 254.432 236.273C254.432 234.432 254.764 232.841 255.429 231.5C256.094 230.159 257.006 229.125 258.165 228.398C259.324 227.67 260.648 227.307 262.136 227.307C263.017 227.307 263.844 227.435 264.616 227.69C265.395 227.946 266.097 228.321 266.722 228.815C267.347 229.304 267.869 229.901 268.29 230.605C268.71 231.304 269 232.102 269.159 233Z" fill="#B10038"/>
<path d="M121.409 91.7126L261.471 221.001L68.5188 221.001L121.409 91.7126Z" stroke="#056624" stroke-width="2"/>
<line x1="188" y1="153" x2="96" y2="153" stroke="#056624" stroke-width="2"/>
<path d="M77.5 201.5C85.9117 203.872 91.7646 210.637 89.6137 220.567" stroke="#B10038"/>
<path d="M105.5 133C113.912 135.372 119.584 142.04 117.434 151.97" stroke="#B10038"/>
<path d="M114.5 110.5C125 115.5 131 113.5 135.26 105.348" stroke="#B10038"/>
<path d="M112.5 116C125 121 131.5 119.5 139 109.5" stroke="#B10038"/>
</svg>
