<svg width="320" height="320" viewBox="0 0 320 320" fill="none" xmlns="http://www.w3.org/2000/svg">
<g clip-path="url(#clip0_7_4)">
<rect width="320" height="320" fill="white"/>
<path d="M43.9887 65.3075L284.885 237.832L115.735 237.832L43.9887 65.3075Z" stroke="#3722D4" stroke-width="2"/>
<line x1="116.176" y1="237.433" x2="171.176" y2="157.433" stroke="#3722D4" stroke-width="2"/>
<path d="M102.829 261H100.614L107.023 243.545H109.204L115.614 261H113.398L108.182 246.307H108.045L102.829 261ZM103.648 254.182H112.579V256.057H103.648V254.182Z" fill="#576C06"/>
<path d="M28.1135 62V44.5455H34.2158C35.4317 44.5455 36.4345 44.7557 37.2243 45.1761C38.0141 45.5909 38.6022 46.1506 38.9885 46.8551C39.3749 47.554 39.5681 48.3295 39.5681 49.1818C39.5681 49.9318 39.4345 50.5511 39.1675 51.0398C38.9061 51.5284 38.5595 51.9148 38.1277 52.1989C37.7016 52.483 37.2385 52.6932 36.7385 52.8295V53C37.2726 53.0341 37.8095 53.2216 38.3493 53.5625C38.8891 53.9034 39.3408 54.392 39.7044 55.0284C40.0681 55.6648 40.2499 56.4432 40.2499 57.3636C40.2499 58.2386 40.051 59.0256 39.6533 59.7244C39.2556 60.4233 38.6277 60.9773 37.7698 61.3864C36.9118 61.7955 35.7953 62 34.4203 62H28.1135ZM30.2272 60.125H34.4203C35.801 60.125 36.7811 59.858 37.3607 59.3239C37.9459 58.7841 38.2385 58.1307 38.2385 57.3636C38.2385 56.7727 38.0879 56.2273 37.7868 55.7273C37.4857 55.2216 37.0567 54.8182 36.4999 54.517C35.9431 54.2102 35.284 54.0568 34.5226 54.0568H30.2272V60.125ZM30.2272 52.2159H34.1476C34.784 52.2159 35.3578 52.0909 35.8692 51.8409C36.3862 51.5909 36.7953 51.2386 37.0965 50.7841C37.4033 50.3295 37.5567 49.7955 37.5567 49.1818C37.5567 48.4148 37.2897 47.7642 36.7556 47.2301C36.2215 46.6903 35.3749 46.4205 34.2158 46.4205H30.2272V52.2159Z" fill="#576C06"/>
<path d="M296.159 249H294.045C293.92 248.392 293.702 247.858 293.389 247.398C293.082 246.938 292.707 246.551 292.264 246.239C291.827 245.92 291.341 245.682 290.807 245.523C290.273 245.364 289.716 245.284 289.136 245.284C288.08 245.284 287.122 245.551 286.264 246.085C285.412 246.619 284.733 247.406 284.227 248.446C283.727 249.486 283.477 250.761 283.477 252.273C283.477 253.784 283.727 255.06 284.227 256.099C284.733 257.139 285.412 257.926 286.264 258.46C287.122 258.994 288.08 259.261 289.136 259.261C289.716 259.261 290.273 259.182 290.807 259.023C291.341 258.864 291.827 258.628 292.264 258.315C292.707 257.997 293.082 257.608 293.389 257.148C293.702 256.682 293.92 256.148 294.045 255.545H296.159C296 256.437 295.71 257.236 295.29 257.94C294.869 258.645 294.347 259.244 293.722 259.739C293.097 260.227 292.395 260.599 291.616 260.855C290.844 261.111 290.017 261.239 289.136 261.239C287.648 261.239 286.324 260.875 285.165 260.148C284.006 259.42 283.094 258.386 282.429 257.045C281.764 255.705 281.432 254.114 281.432 252.273C281.432 250.432 281.764 248.841 282.429 247.5C283.094 246.159 284.006 245.125 285.165 244.398C286.324 243.67 287.648 243.307 289.136 243.307C290.017 243.307 290.844 243.435 291.616 243.69C292.395 243.946 293.097 244.321 293.722 244.815C294.347 245.304 294.869 245.901 295.29 246.605C295.71 247.304 296 248.102 296.159 249Z" fill="#576C06"/>
<path d="M179.5 152H174.114V134.545H179.739C181.432 134.545 182.881 134.895 184.085 135.594C185.29 136.287 186.213 137.284 186.855 138.585C187.497 139.881 187.818 141.432 187.818 143.239C187.818 145.057 187.494 146.622 186.846 147.935C186.199 149.241 185.256 150.247 184.017 150.952C182.778 151.651 181.273 152 179.5 152ZM176.227 150.125H179.364C180.807 150.125 182.003 149.847 182.952 149.29C183.9 148.733 184.608 147.94 185.074 146.912C185.54 145.884 185.773 144.659 185.773 143.239C185.773 141.83 185.542 140.616 185.082 139.599C184.622 138.577 183.935 137.793 183.02 137.247C182.105 136.696 180.966 136.42 179.602 136.42H176.227V150.125Z" fill="#576C06"/>
<path d="M131 216.5C136.833 218 147 224.2 141 237" stroke="#576C06"/>
<path d="M104.5 208.5C109.135 204.654 124.649 201.135 131.5 213.5" stroke="#576C06"/>
</g>
<defs>
<clipPath id="clip0_7_4">
<rect width="320" height="320" fill="white"/>
</clipPath>
</defs>
</svg>
