<svg width="320" height="320" viewBox="0 0 320 320" fill="none" xmlns="http://www.w3.org/2000/svg">
<rect width="320" height="320" fill="white"/>
<path d="M197.161 65.0726L85.5058 248.833L197.161 248.833L197.161 65.0726Z" stroke="#3722D4" stroke-width="2"/>
<line x1="196.896" y1="248.727" x2="125.896" y2="181.727" stroke="#3722D4" stroke-width="2"/>
<path d="M199.412 271H197.196L203.605 253.545H205.787L212.196 271H209.98L204.764 256.307H204.628L199.412 271ZM200.23 264.182H209.162V266.057H200.23V264.182Z" fill="#576C06"/>
<path d="M74.6959 272V254.545H80.7982C82.0141 254.545 83.0169 254.756 83.8067 255.176C84.5965 255.591 85.1845 256.151 85.5709 256.855C85.9572 257.554 86.1504 258.33 86.1504 259.182C86.1504 259.932 86.0169 260.551 85.7499 261.04C85.4885 261.528 85.1419 261.915 84.7101 262.199C84.2839 262.483 83.8209 262.693 83.3209 262.83V263C83.855 263.034 84.3919 263.222 84.9317 263.562C85.4715 263.903 85.9232 264.392 86.2868 265.028C86.6504 265.665 86.8322 266.443 86.8322 267.364C86.8322 268.239 86.6334 269.026 86.2357 269.724C85.8379 270.423 85.2101 270.977 84.3521 271.386C83.4942 271.795 82.3777 272 81.0027 272H74.6959ZM76.8095 270.125H81.0027C82.3834 270.125 83.3635 269.858 83.943 269.324C84.5283 268.784 84.8209 268.131 84.8209 267.364C84.8209 266.773 84.6703 266.227 84.3692 265.727C84.068 265.222 83.6391 264.818 83.0822 264.517C82.5254 264.21 81.8663 264.057 81.105 264.057H76.8095V270.125ZM76.8095 262.216H80.73C81.3663 262.216 81.9402 262.091 82.4516 261.841C82.9686 261.591 83.3777 261.239 83.6788 260.784C83.9857 260.33 84.1391 259.795 84.1391 259.182C84.1391 258.415 83.872 257.764 83.3379 257.23C82.8038 256.69 81.9572 256.42 80.7982 256.42H76.8095V262.216Z" fill="#576C06"/>
<path d="M205.159 44H203.045C202.92 43.392 202.702 42.858 202.389 42.3977C202.082 41.9375 201.707 41.5511 201.264 41.2386C200.827 40.9205 200.341 40.6818 199.807 40.5227C199.273 40.3636 198.716 40.2841 198.136 40.2841C197.08 40.2841 196.122 40.5511 195.264 41.0852C194.412 41.6193 193.733 42.4062 193.227 43.446C192.727 44.4858 192.477 45.7614 192.477 47.2727C192.477 48.7841 192.727 50.0597 193.227 51.0994C193.733 52.1392 194.412 52.9261 195.264 53.4602C196.122 53.9943 197.08 54.2614 198.136 54.2614C198.716 54.2614 199.273 54.1818 199.807 54.0227C200.341 53.8636 200.827 53.6278 201.264 53.3153C201.707 52.9972 202.082 52.608 202.389 52.1477C202.702 51.6818 202.92 51.1477 203.045 50.5455H205.159C205 51.4375 204.71 52.2358 204.29 52.9403C203.869 53.6449 203.347 54.2443 202.722 54.7386C202.097 55.2273 201.395 55.5994 200.616 55.8551C199.844 56.1108 199.017 56.2386 198.136 56.2386C196.648 56.2386 195.324 55.875 194.165 55.1477C193.006 54.4205 192.094 53.3864 191.429 52.0455C190.764 50.7045 190.432 49.1136 190.432 47.2727C190.432 45.4318 190.764 43.8409 191.429 42.5C192.094 41.1591 193.006 40.125 194.165 39.3977C195.324 38.6705 196.648 38.3068 198.136 38.3068C199.017 38.3068 199.844 38.4347 200.616 38.6903C201.395 38.946 202.097 39.321 202.722 39.8153C203.347 40.304 203.869 40.9006 204.29 41.6051C204.71 42.304 205 43.1023 205.159 44Z" fill="#576C06"/>
<path d="M116.5 181H111.114V163.545H116.739C118.432 163.545 119.881 163.895 121.085 164.594C122.29 165.287 123.213 166.284 123.855 167.585C124.497 168.881 124.818 170.432 124.818 172.239C124.818 174.057 124.494 175.622 123.847 176.935C123.199 178.241 122.256 179.247 121.017 179.952C119.778 180.651 118.273 181 116.5 181ZM113.227 179.125H116.364C117.807 179.125 119.003 178.847 119.952 178.29C120.901 177.733 121.608 176.94 122.074 175.912C122.54 174.884 122.773 173.659 122.773 172.239C122.773 170.83 122.543 169.616 122.082 168.599C121.622 167.577 120.935 166.793 120.02 166.247C119.105 165.696 117.966 165.42 116.602 165.42H113.227V179.125Z" fill="#576C06"/>
<path d="M196.582 234H181.582V248" stroke="#3722D4"/>
<path d="M177.582 229C178.582 224.5 184.082 217 196.082 221" stroke="#576C06"/>
<path d="M172.582 248C169.42 244.032 169.951 235.221 177.582 231.5" stroke="#576C06"/>
</svg>
