<svg width="320" height="320" viewBox="0 0 320 320" fill="none" xmlns="http://www.w3.org/2000/svg">
<g clip-path="url(#clip0_8_28)">
<rect width="320" height="320" fill="white"/>
<path d="M141.692 59.1188L57.2457 258.942L263.943 158.784L141.692 59.1188Z" stroke="#3722D4" stroke-width="2"/>
<line x1="262.112" y1="157.995" x2="106.695" y2="142.995" stroke="#3722D4" stroke-width="2"/>
<path d="M263.62 179H261.404L267.813 161.545H269.995L276.404 179H274.188L268.972 164.307H268.836L263.62 179ZM264.438 172.182H273.37V174.057H264.438V172.182Z" fill="#576C06"/>
<path d="M50.9042 283V265.545H57.0065C58.2224 265.545 59.2252 265.756 60.015 266.176C60.8048 266.591 61.3929 267.151 61.7792 267.855C62.1656 268.554 62.3588 269.33 62.3588 270.182C62.3588 270.932 62.2252 271.551 61.9582 272.04C61.6968 272.528 61.3502 272.915 60.9184 273.199C60.4923 273.483 60.0292 273.693 59.5292 273.83V274C60.0633 274.034 60.6002 274.222 61.14 274.562C61.6798 274.903 62.1315 275.392 62.4951 276.028C62.8588 276.665 63.0406 277.443 63.0406 278.364C63.0406 279.239 62.8417 280.026 62.444 280.724C62.0463 281.423 61.4184 281.977 60.5605 282.386C59.7025 282.795 58.586 283 57.211 283H50.9042ZM53.0179 281.125H57.211C58.5917 281.125 59.5718 280.858 60.1514 280.324C60.7366 279.784 61.0292 279.131 61.0292 278.364C61.0292 277.773 60.8787 277.227 60.5775 276.727C60.2764 276.222 59.8474 275.818 59.2906 275.517C58.7338 275.21 58.0747 275.057 57.3133 275.057H53.0179V281.125ZM53.0179 273.216H56.9383C57.5747 273.216 58.1485 273.091 58.6599 272.841C59.177 272.591 59.586 272.239 59.8872 271.784C60.194 271.33 60.3474 270.795 60.3474 270.182C60.3474 269.415 60.0804 268.764 59.5463 268.23C59.0122 267.69 58.1656 267.42 57.0065 267.42H53.0179V273.216Z" fill="#576C06"/>
<path d="M148.95 39H146.836C146.711 38.392 146.492 37.858 146.18 37.3977C145.873 36.9375 145.498 36.5511 145.055 36.2386C144.617 35.9205 144.131 35.6818 143.597 35.5227C143.063 35.3636 142.506 35.2841 141.927 35.2841C140.87 35.2841 139.913 35.5511 139.055 36.0852C138.203 36.6193 137.524 37.4062 137.018 38.446C136.518 39.4858 136.268 40.7614 136.268 42.2727C136.268 43.7841 136.518 45.0597 137.018 46.0994C137.524 47.1392 138.203 47.9261 139.055 48.4602C139.913 48.9943 140.87 49.2614 141.927 49.2614C142.506 49.2614 143.063 49.1818 143.597 49.0227C144.131 48.8636 144.617 48.6278 145.055 48.3153C145.498 47.9972 145.873 47.608 146.18 47.1477C146.492 46.6818 146.711 46.1477 146.836 45.5455H148.95C148.791 46.4375 148.501 47.2358 148.08 47.9403C147.66 48.6449 147.137 49.2443 146.512 49.7386C145.887 50.2273 145.185 50.5994 144.407 50.8551C143.634 51.1108 142.808 51.2386 141.927 51.2386C140.438 51.2386 139.114 50.875 137.955 50.1477C136.796 49.4205 135.884 48.3864 135.22 47.0455C134.555 45.7045 134.222 44.1136 134.222 42.2727C134.222 40.4318 134.555 38.8409 135.22 37.5C135.884 36.1591 136.796 35.125 137.955 34.3977C139.114 33.6705 140.438 33.3068 141.927 33.3068C142.808 33.3068 143.634 33.4347 144.407 33.6903C145.185 33.946 145.887 34.321 146.512 34.8153C147.137 35.304 147.66 35.9006 148.08 36.6051C148.501 37.304 148.791 38.1023 148.95 39Z" fill="#576C06"/>
<path d="M91.2906 153H85.9042V135.545H91.5292C93.2224 135.545 94.6713 135.895 95.8758 136.594C97.0804 137.287 98.0037 138.284 98.6457 139.585C99.2877 140.881 99.6088 142.432 99.6088 144.239C99.6088 146.057 99.2849 147.622 98.6372 148.935C97.9895 150.241 97.0463 151.247 95.8076 151.952C94.569 152.651 93.0633 153 91.2906 153ZM88.0179 151.125H91.1542C92.5974 151.125 93.7934 150.847 94.7423 150.29C95.6912 149.733 96.3985 148.94 96.8645 147.912C97.3304 146.884 97.5633 145.659 97.5633 144.239C97.5633 142.83 97.3332 141.616 96.873 140.599C96.4127 139.577 95.7252 138.793 94.8105 138.247C93.8957 137.696 92.7565 137.42 91.3929 137.42H88.0179V151.125Z" fill="#576C06"/>
<path d="M228.291 154C225.642 150.16 226.791 140.5 235.403 136.709" stroke="#576C06"/>
<path d="M230.291 174C225.546 172.202 221.127 162.595 225.791 155.5" stroke="#576C06"/>
</g>
<defs>
<clipPath id="clip0_8_28">
<rect width="320" height="320" fill="white"/>
</clipPath>
</defs>
</svg>
