<svg width="320" height="320" viewBox="0 0 320 320" fill="none" xmlns="http://www.w3.org/2000/svg">
<g clip-path="url(#clip0_8_47)">
<rect width="320" height="320" fill="white"/>
<path d="M56.6496 70.0726L168.305 253.833L56.6499 253.833L56.6496 70.0726Z" stroke="#D44022" stroke-width="2"/>
<path d="M45.8295 276H43.6136L50.0227 258.545H52.2045L58.6136 276H56.3977L51.1818 261.307H51.0455L45.8295 276ZM46.6477 269.182H55.5795V271.057H46.6477V269.182Z" fill="#04430D"/>
<path d="M49.1136 61V43.5455H55.2159C56.4318 43.5455 57.4347 43.7557 58.2244 44.1761C59.0142 44.5909 59.6023 45.1506 59.9886 45.8551C60.375 46.554 60.5682 47.3295 60.5682 48.1818C60.5682 48.9318 60.4347 49.5511 60.1676 50.0398C59.9063 50.5284 59.5597 50.9148 59.1278 51.1989C58.7017 51.483 58.2386 51.6932 57.7386 51.8295V52C58.2727 52.0341 58.8097 52.2216 59.3494 52.5625C59.8892 52.9034 60.3409 53.392 60.7045 54.0284C61.0682 54.6648 61.25 55.4432 61.25 56.3636C61.25 57.2386 61.0511 58.0256 60.6534 58.7244C60.2557 59.4233 59.6278 59.9773 58.7699 60.3864C57.9119 60.7955 56.7955 61 55.4205 61H49.1136ZM51.2273 59.125H55.4205C56.8011 59.125 57.7813 58.858 58.3608 58.3239C58.946 57.7841 59.2386 57.1307 59.2386 56.3636C59.2386 55.7727 59.0881 55.2273 58.7869 54.7273C58.4858 54.2216 58.0568 53.8182 57.5 53.517C56.9432 53.2102 56.2841 53.0568 55.5227 53.0568H51.2273V59.125ZM51.2273 51.2159H55.1477C55.7841 51.2159 56.358 51.0909 56.8693 50.8409C57.3864 50.5909 57.7955 50.2386 58.0966 49.7841C58.4034 49.3295 58.5568 48.7955 58.5568 48.1818C58.5568 47.4148 58.2898 46.7642 57.7557 46.2301C57.2216 45.6903 56.375 45.4205 55.2159 45.4205H51.2273V51.2159Z" fill="#04430D"/>
<path d="M177.159 264H175.045C174.92 263.392 174.702 262.858 174.389 262.398C174.082 261.938 173.707 261.551 173.264 261.239C172.827 260.92 172.341 260.682 171.807 260.523C171.273 260.364 170.716 260.284 170.136 260.284C169.08 260.284 168.122 260.551 167.264 261.085C166.412 261.619 165.733 262.406 165.227 263.446C164.727 264.486 164.477 265.761 164.477 267.273C164.477 268.784 164.727 270.06 165.227 271.099C165.733 272.139 166.412 272.926 167.264 273.46C168.122 273.994 169.08 274.261 170.136 274.261C170.716 274.261 171.273 274.182 171.807 274.023C172.341 273.864 172.827 273.628 173.264 273.315C173.707 272.997 174.082 272.608 174.389 272.148C174.702 271.682 174.92 271.148 175.045 270.545H177.159C177 271.437 176.71 272.236 176.29 272.94C175.869 273.645 175.347 274.244 174.722 274.739C174.097 275.227 173.395 275.599 172.616 275.855C171.844 276.111 171.017 276.239 170.136 276.239C168.648 276.239 167.324 275.875 166.165 275.148C165.006 274.42 164.094 273.386 163.429 272.045C162.764 270.705 162.432 269.114 162.432 267.273C162.432 265.432 162.764 263.841 163.429 262.5C164.094 261.159 165.006 260.125 166.165 259.398C167.324 258.67 168.648 258.307 170.136 258.307C171.017 258.307 171.844 258.435 172.616 258.69C173.395 258.946 174.097 259.321 174.722 259.815C175.347 260.304 175.869 260.901 176.29 261.605C176.71 262.304 177 263.102 177.159 264Z" fill="#04430D"/>
<path d="M56 239H71V253" stroke="#D44022"/>
<path d="M186.466 215.091V214.989C186.477 213.903 186.591 213.04 186.807 212.398C187.023 211.756 187.33 211.236 187.727 210.838C188.125 210.44 188.602 210.074 189.159 209.739C189.494 209.534 189.795 209.293 190.062 209.014C190.33 208.73 190.54 208.403 190.693 208.034C190.852 207.665 190.932 207.256 190.932 206.807C190.932 206.25 190.801 205.767 190.54 205.358C190.278 204.949 189.929 204.634 189.491 204.412C189.054 204.19 188.568 204.08 188.034 204.08C187.568 204.08 187.119 204.176 186.688 204.369C186.256 204.562 185.895 204.866 185.605 205.281C185.315 205.696 185.148 206.239 185.102 206.909H182.955C183 205.943 183.25 205.116 183.705 204.429C184.165 203.741 184.77 203.216 185.52 202.852C186.276 202.489 187.114 202.307 188.034 202.307C189.034 202.307 189.903 202.506 190.642 202.903C191.386 203.301 191.96 203.847 192.364 204.54C192.773 205.233 192.977 206.023 192.977 206.909C192.977 207.534 192.881 208.099 192.688 208.605C192.5 209.111 192.227 209.562 191.869 209.96C191.517 210.358 191.091 210.71 190.591 211.017C190.091 211.33 189.69 211.659 189.389 212.006C189.088 212.347 188.869 212.753 188.733 213.224C188.597 213.696 188.523 214.284 188.511 214.989V215.091H186.466ZM187.557 220.136C187.136 220.136 186.776 219.986 186.474 219.685C186.173 219.384 186.023 219.023 186.023 218.602C186.023 218.182 186.173 217.821 186.474 217.52C186.776 217.219 187.136 217.068 187.557 217.068C187.977 217.068 188.338 217.219 188.639 217.52C188.94 217.821 189.091 218.182 189.091 218.602C189.091 218.881 189.02 219.136 188.878 219.369C188.741 219.602 188.557 219.79 188.324 219.932C188.097 220.068 187.841 220.136 187.557 220.136Z" fill="#04430D"/>
<path d="M152 225.657C173 221 193 229 197 253.5" stroke="#04430D"/>
<line x1="169" y1="254" x2="280" y2="254" stroke="black" stroke-width="2"/>
</g>
<defs>
<clipPath id="clip0_8_47">
<rect width="320" height="320" fill="white"/>
</clipPath>
</defs>
</svg>
