<svg width="320" height="320" viewBox="0 0 320 320" fill="none" xmlns="http://www.w3.org/2000/svg">
<rect width="320" height="320" fill="white"/>
<path d="M164.365 86.7126L24.3037 216.001L217.256 216.001L164.365 86.7126Z" stroke="#D44022" stroke-width="2"/>
<path d="M16.8295 241H14.6136L21.0227 223.545H23.2045L29.6136 241H27.3977L22.1818 226.307H22.0455L16.8295 241ZM17.6477 234.182H26.5795V236.057H17.6477V234.182Z" fill="#576C06"/>
<path d="M162.114 79V61.5455H168.216C169.432 61.5455 170.435 61.7557 171.224 62.1761C172.014 62.5909 172.602 63.1506 172.989 63.8551C173.375 64.554 173.568 65.3295 173.568 66.1818C173.568 66.9318 173.435 67.5511 173.168 68.0398C172.906 68.5284 172.56 68.9148 172.128 69.1989C171.702 69.483 171.239 69.6932 170.739 69.8295V70C171.273 70.0341 171.81 70.2216 172.349 70.5625C172.889 70.9034 173.341 71.392 173.705 72.0284C174.068 72.6648 174.25 73.4432 174.25 74.3636C174.25 75.2386 174.051 76.0256 173.653 76.7244C173.256 77.4233 172.628 77.9773 171.77 78.3864C170.912 78.7955 169.795 79 168.42 79H162.114ZM164.227 77.125H168.42C169.801 77.125 170.781 76.858 171.361 76.3239C171.946 75.7841 172.239 75.1307 172.239 74.3636C172.239 73.7727 172.088 73.2273 171.787 72.7273C171.486 72.2216 171.057 71.8182 170.5 71.517C169.943 71.2102 169.284 71.0568 168.523 71.0568H164.227V77.125ZM164.227 69.2159H168.148C168.784 69.2159 169.358 69.0909 169.869 68.8409C170.386 68.5909 170.795 68.2386 171.097 67.7841C171.403 67.3295 171.557 66.7955 171.557 66.1818C171.557 65.4148 171.29 64.7642 170.756 64.2301C170.222 63.6903 169.375 63.4205 168.216 63.4205H164.227V69.2159Z" fill="#576C06"/>
<path d="M225.159 228H223.045C222.92 227.392 222.702 226.858 222.389 226.398C222.082 225.938 221.707 225.551 221.264 225.239C220.827 224.92 220.341 224.682 219.807 224.523C219.273 224.364 218.716 224.284 218.136 224.284C217.08 224.284 216.122 224.551 215.264 225.085C214.412 225.619 213.733 226.406 213.227 227.446C212.727 228.486 212.477 229.761 212.477 231.273C212.477 232.784 212.727 234.06 213.227 235.099C213.733 236.139 214.412 236.926 215.264 237.46C216.122 237.994 217.08 238.261 218.136 238.261C218.716 238.261 219.273 238.182 219.807 238.023C220.341 237.864 220.827 237.628 221.264 237.315C221.707 236.997 222.082 236.608 222.389 236.148C222.702 235.682 222.92 235.148 223.045 234.545H225.159C225 235.437 224.71 236.236 224.29 236.94C223.869 237.645 223.347 238.244 222.722 238.739C222.097 239.227 221.395 239.599 220.616 239.855C219.844 240.111 219.017 240.239 218.136 240.239C216.648 240.239 215.324 239.875 214.165 239.148C213.006 238.42 212.094 237.386 211.429 236.045C210.764 234.705 210.432 233.114 210.432 231.273C210.432 229.432 210.764 227.841 211.429 226.5C212.094 225.159 213.006 224.125 214.165 223.398C215.324 222.67 216.648 222.307 218.136 222.307C219.017 222.307 219.844 222.435 220.616 222.69C221.395 222.946 222.097 223.321 222.722 223.815C223.347 224.304 223.869 224.901 224.29 225.605C224.71 226.304 225 227.102 225.159 228Z" fill="#576C06"/>
<path d="M239.466 180.091V179.989C239.477 178.903 239.591 178.04 239.807 177.398C240.023 176.756 240.33 176.236 240.727 175.838C241.125 175.44 241.602 175.074 242.159 174.739C242.494 174.534 242.795 174.293 243.062 174.014C243.33 173.73 243.54 173.403 243.693 173.034C243.852 172.665 243.932 172.256 243.932 171.807C243.932 171.25 243.801 170.767 243.54 170.358C243.278 169.949 242.929 169.634 242.491 169.412C242.054 169.19 241.568 169.08 241.034 169.08C240.568 169.08 240.119 169.176 239.688 169.369C239.256 169.562 238.895 169.866 238.605 170.281C238.315 170.696 238.148 171.239 238.102 171.909H235.955C236 170.943 236.25 170.116 236.705 169.429C237.165 168.741 237.77 168.216 238.52 167.852C239.276 167.489 240.114 167.307 241.034 167.307C242.034 167.307 242.903 167.506 243.642 167.903C244.386 168.301 244.96 168.847 245.364 169.54C245.773 170.233 245.977 171.023 245.977 171.909C245.977 172.534 245.881 173.099 245.688 173.605C245.5 174.111 245.227 174.562 244.869 174.96C244.517 175.358 244.091 175.71 243.591 176.017C243.091 176.33 242.69 176.659 242.389 177.006C242.088 177.347 241.869 177.753 241.733 178.224C241.597 178.696 241.523 179.284 241.511 179.989V180.091H239.466ZM240.557 185.136C240.136 185.136 239.776 184.986 239.474 184.685C239.173 184.384 239.023 184.023 239.023 183.602C239.023 183.182 239.173 182.821 239.474 182.52C239.776 182.219 240.136 182.068 240.557 182.068C240.977 182.068 241.338 182.219 241.639 182.52C241.94 182.821 242.091 183.182 242.091 183.602C242.091 183.881 242.02 184.136 241.878 184.369C241.741 184.602 241.557 184.79 241.324 184.932C241.097 185.068 240.841 185.136 240.557 185.136Z" fill="#04430D"/>
<path d="M206.5 187C227.5 182.343 248 190.5 252 215" stroke="#04430D"/>
<line x1="218" y1="216" x2="304" y2="216" stroke="black" stroke-width="2"/>
</svg>
