<svg width="320" height="320" viewBox="0 0 320 320" fill="none" xmlns="http://www.w3.org/2000/svg">
<g clip-path="url(#clip0_8_38)">
<rect width="320" height="320" fill="white"/>
<path d="M197.76 34.4872L37.5817 283.759L195.01 220.819L197.76 34.4872Z" stroke="#D44022" stroke-width="2"/>
<path d="M23.8295 300H21.6136L28.0227 282.545H30.2045L36.6136 300H34.3977L29.1818 285.307H29.0455L23.8295 300ZM24.6477 293.182H33.5795V295.057H24.6477V293.182Z" fill="#04430D"/>
<path d="M203.114 35V17.5455H209.216C210.432 17.5455 211.435 17.7557 212.224 18.1761C213.014 18.5909 213.602 19.1506 213.989 19.8551C214.375 20.554 214.568 21.3295 214.568 22.1818C214.568 22.9318 214.435 23.5511 214.168 24.0398C213.906 24.5284 213.56 24.9148 213.128 25.1989C212.702 25.483 212.239 25.6932 211.739 25.8295V26C212.273 26.0341 212.81 26.2216 213.349 26.5625C213.889 26.9034 214.341 27.392 214.705 28.0284C215.068 28.6648 215.25 29.4432 215.25 30.3636C215.25 31.2386 215.051 32.0256 214.653 32.7244C214.256 33.4233 213.628 33.9773 212.77 34.3864C211.912 34.7955 210.795 35 209.42 35H203.114ZM205.227 33.125H209.42C210.801 33.125 211.781 32.858 212.361 32.3239C212.946 31.7841 213.239 31.1307 213.239 30.3636C213.239 29.7727 213.088 29.2273 212.787 28.7273C212.486 28.2216 212.057 27.8182 211.5 27.517C210.943 27.2102 210.284 27.0568 209.523 27.0568H205.227V33.125ZM205.227 25.2159H209.148C209.784 25.2159 210.358 25.0909 210.869 24.8409C211.386 24.5909 211.795 24.2386 212.097 23.7841C212.403 23.3295 212.557 22.7955 212.557 22.1818C212.557 21.4148 212.29 20.7642 211.756 20.2301C211.222 19.6903 210.375 19.4205 209.216 19.4205H205.227V25.2159Z" fill="#04430D"/>
<path d="M215.466 189.091V188.989C215.477 187.903 215.591 187.04 215.807 186.398C216.023 185.756 216.33 185.236 216.727 184.838C217.125 184.44 217.602 184.074 218.159 183.739C218.494 183.534 218.795 183.293 219.062 183.014C219.33 182.73 219.54 182.403 219.693 182.034C219.852 181.665 219.932 181.256 219.932 180.807C219.932 180.25 219.801 179.767 219.54 179.358C219.278 178.949 218.929 178.634 218.491 178.412C218.054 178.19 217.568 178.08 217.034 178.08C216.568 178.08 216.119 178.176 215.688 178.369C215.256 178.562 214.895 178.866 214.605 179.281C214.315 179.696 214.148 180.239 214.102 180.909H211.955C212 179.943 212.25 179.116 212.705 178.429C213.165 177.741 213.77 177.216 214.52 176.852C215.276 176.489 216.114 176.307 217.034 176.307C218.034 176.307 218.903 176.506 219.642 176.903C220.386 177.301 220.96 177.847 221.364 178.54C221.773 179.233 221.977 180.023 221.977 180.909C221.977 181.534 221.881 182.099 221.688 182.605C221.5 183.111 221.227 183.562 220.869 183.96C220.517 184.358 220.091 184.71 219.591 185.017C219.091 185.33 218.69 185.659 218.389 186.006C218.088 186.347 217.869 186.753 217.733 187.224C217.597 187.696 217.523 188.284 217.511 188.989V189.091H215.466ZM216.557 194.136C216.136 194.136 215.776 193.986 215.474 193.685C215.173 193.384 215.023 193.023 215.023 192.602C215.023 192.182 215.173 191.821 215.474 191.52C215.776 191.219 216.136 191.068 216.557 191.068C216.977 191.068 217.338 191.219 217.639 191.52C217.94 191.821 218.091 192.182 218.091 192.602C218.091 192.881 218.02 193.136 217.878 193.369C217.741 193.602 217.557 193.79 217.324 193.932C217.097 194.068 216.841 194.136 216.557 194.136Z" fill="#04430D"/>
<path d="M208.159 228H206.045C205.92 227.392 205.702 226.858 205.389 226.398C205.082 225.938 204.707 225.551 204.264 225.239C203.827 224.92 203.341 224.682 202.807 224.523C202.273 224.364 201.716 224.284 201.136 224.284C200.08 224.284 199.122 224.551 198.264 225.085C197.412 225.619 196.733 226.406 196.227 227.446C195.727 228.486 195.477 229.761 195.477 231.273C195.477 232.784 195.727 234.06 196.227 235.099C196.733 236.139 197.412 236.926 198.264 237.46C199.122 237.994 200.08 238.261 201.136 238.261C201.716 238.261 202.273 238.182 202.807 238.023C203.341 237.864 203.827 237.628 204.264 237.315C204.707 236.997 205.082 236.608 205.389 236.148C205.702 235.682 205.92 235.148 206.045 234.545H208.159C208 235.437 207.71 236.236 207.29 236.94C206.869 237.645 206.347 238.244 205.722 238.739C205.097 239.227 204.395 239.599 203.616 239.855C202.844 240.111 202.017 240.239 201.136 240.239C199.648 240.239 198.324 239.875 197.165 239.148C196.006 238.42 195.094 237.386 194.429 236.045C193.764 234.705 193.432 233.114 193.432 231.273C193.432 229.432 193.764 227.841 194.429 226.5C195.094 225.159 196.006 224.125 197.165 223.398C198.324 222.67 199.648 222.307 201.136 222.307C202.017 222.307 202.844 222.435 203.616 222.69C204.395 222.946 205.097 223.321 205.722 223.815C206.347 224.304 206.869 224.901 207.29 225.605C207.71 226.304 208 227.102 208.159 228Z" fill="#04430D"/>
<path d="M196 196.873C208 193.5 217 199 220.5 210" stroke="#04430D"/>
<line x1="194.63" y1="221.071" x2="297.63" y2="180.071" stroke="black" stroke-width="2"/>
</g>
<defs>
<clipPath id="clip0_8_38">
<rect width="320" height="320" fill="white"/>
</clipPath>
</defs>
</svg>
