<svg width="320" height="320" viewBox="0 0 320 320" fill="none" xmlns="http://www.w3.org/2000/svg">
<rect width="320" height="320" fill="white"/>
<path d="M59.8295 246H57.6136L64.0227 228.545H66.2045L72.6136 246H70.3977L65.1818 231.307H65.0455L59.8295 246ZM60.6477 239.182H69.5795V241.057H60.6477V239.182Z" fill="#B10038"/>
<path d="M187.114 72V54.5455H193.216C194.432 54.5455 195.435 54.7557 196.224 55.1761C197.014 55.5909 197.602 56.1506 197.989 56.8551C198.375 57.554 198.568 58.3295 198.568 59.1818C198.568 59.9318 198.435 60.5511 198.168 61.0398C197.906 61.5284 197.56 61.9148 197.128 62.1989C196.702 62.483 196.239 62.6932 195.739 62.8295V63C196.273 63.0341 196.81 63.2216 197.349 63.5625C197.889 63.9034 198.341 64.392 198.705 65.0284C199.068 65.6648 199.25 66.4432 199.25 67.3636C199.25 68.2386 199.051 69.0256 198.653 69.7244C198.256 70.4233 197.628 70.9773 196.77 71.3864C195.912 71.7955 194.795 72 193.42 72H187.114ZM189.227 70.125H193.42C194.801 70.125 195.781 69.858 196.361 69.3239C196.946 68.7841 197.239 68.1307 197.239 67.3636C197.239 66.7727 197.088 66.2273 196.787 65.7273C196.486 65.2216 196.057 64.8182 195.5 64.517C194.943 64.2102 194.284 64.0568 193.523 64.0568H189.227V70.125ZM189.227 62.2159H193.148C193.784 62.2159 194.358 62.0909 194.869 61.8409C195.386 61.5909 195.795 61.2386 196.097 60.7841C196.403 60.3295 196.557 59.7955 196.557 59.1818C196.557 58.4148 196.29 57.7642 195.756 57.2301C195.222 56.6903 194.375 56.4205 193.216 56.4205H189.227V62.2159Z" fill="#B10038"/>
<path d="M192.5 246H187.114V228.545H192.739C194.432 228.545 195.881 228.895 197.085 229.594C198.29 230.287 199.213 231.284 199.855 232.585C200.497 233.881 200.818 235.432 200.818 237.239C200.818 239.057 200.494 240.622 199.847 241.935C199.199 243.241 198.256 244.247 197.017 244.952C195.778 245.651 194.273 246 192.5 246ZM189.227 244.125H192.364C193.807 244.125 195.003 243.847 195.952 243.29C196.901 242.733 197.608 241.94 198.074 240.912C198.54 239.884 198.773 238.659 198.773 237.239C198.773 235.83 198.543 234.616 198.082 233.599C197.622 232.577 196.935 231.793 196.02 231.247C195.105 230.696 193.966 230.42 192.602 230.42H189.227V244.125Z" fill="#B10038"/>
<path d="M269.159 234H267.045C266.92 233.392 266.702 232.858 266.389 232.398C266.082 231.938 265.707 231.551 265.264 231.239C264.827 230.92 264.341 230.682 263.807 230.523C263.273 230.364 262.716 230.284 262.136 230.284C261.08 230.284 260.122 230.551 259.264 231.085C258.412 231.619 257.733 232.406 257.227 233.446C256.727 234.486 256.477 235.761 256.477 237.273C256.477 238.784 256.727 240.06 257.227 241.099C257.733 242.139 258.412 242.926 259.264 243.46C260.122 243.994 261.08 244.261 262.136 244.261C262.716 244.261 263.273 244.182 263.807 244.023C264.341 243.864 264.827 243.628 265.264 243.315C265.707 242.997 266.082 242.608 266.389 242.148C266.702 241.682 266.92 241.148 267.045 240.545H269.159C269 241.437 268.71 242.236 268.29 242.94C267.869 243.645 267.347 244.244 266.722 244.739C266.097 245.227 265.395 245.599 264.616 245.855C263.844 246.111 263.017 246.239 262.136 246.239C260.648 246.239 259.324 245.875 258.165 245.148C257.006 244.42 256.094 243.386 255.429 242.045C254.764 240.705 254.432 239.114 254.432 237.273C254.432 235.432 254.764 233.841 255.429 232.5C256.094 231.159 257.006 230.125 258.165 229.398C259.324 228.67 260.648 228.307 262.136 228.307C263.017 228.307 263.844 228.435 264.616 228.69C265.395 228.946 266.097 229.321 266.722 229.815C267.347 230.304 267.869 230.901 268.29 231.605C268.71 232.304 269 233.102 269.159 234Z" fill="#B10038"/>
<path d="M192.766 79.7869L262.42 221.001L69.2329 221.001L192.766 79.7869Z" stroke="#056624" stroke-width="2"/>
<line x1="193" y1="220" x2="193" y2="81" stroke="#056624" stroke-width="2"/>
</svg>
