<svg width="320" height="320" viewBox="0 0 320 320" fill="none" xmlns="http://www.w3.org/2000/svg">
<g clip-path="url(#clip0_45_2)">
<rect width="320" height="320" fill="white"/>
<path d="M43.8295 246H41.6136L48.0227 228.545H50.2045L56.6136 246H54.3977L49.1818 231.307H49.0455L43.8295 246ZM44.6477 239.182H53.5795V241.057H44.6477V239.182Z" fill="#B10038"/>
<path d="M130.114 85V67.5455H136.216C137.432 67.5455 138.435 67.7557 139.224 68.1761C140.014 68.5909 140.602 69.1506 140.989 69.8551C141.375 70.554 141.568 71.3295 141.568 72.1818C141.568 72.9318 141.435 73.5511 141.168 74.0398C140.906 74.5284 140.56 74.9148 140.128 75.1989C139.702 75.483 139.239 75.6932 138.739 75.8295V76C139.273 76.0341 139.81 76.2216 140.349 76.5625C140.889 76.9034 141.341 77.392 141.705 78.0284C142.068 78.6648 142.25 79.4432 142.25 80.3636C142.25 81.2386 142.051 82.0256 141.653 82.7244C141.256 83.4233 140.628 83.9773 139.77 84.3864C138.912 84.7955 137.795 85 136.42 85H130.114ZM132.227 83.125H136.42C137.801 83.125 138.781 82.858 139.361 82.3239C139.946 81.7841 140.239 81.1307 140.239 80.3636C140.239 79.7727 140.088 79.2273 139.787 78.7273C139.486 78.2216 139.057 77.8182 138.5 77.517C137.943 77.2102 137.284 77.0568 136.523 77.0568H132.227V83.125ZM132.227 75.2159H136.148C136.784 75.2159 137.358 75.0909 137.869 74.8409C138.386 74.5909 138.795 74.2386 139.097 73.7841C139.403 73.3295 139.557 72.7955 139.557 72.1818C139.557 71.4148 139.29 70.7642 138.756 70.2301C138.222 69.6903 137.375 69.4205 136.216 69.4205H132.227V75.2159Z" fill="#B10038"/>
<path d="M112.5 245H107.114V227.545H112.739C114.432 227.545 115.881 227.895 117.085 228.594C118.29 229.287 119.213 230.284 119.855 231.585C120.497 232.881 120.818 234.432 120.818 236.239C120.818 238.057 120.494 239.622 119.847 240.935C119.199 242.241 118.256 243.247 117.017 243.952C115.778 244.651 114.273 245 112.5 245ZM109.227 243.125H112.364C113.807 243.125 115.003 242.847 115.952 242.29C116.901 241.733 117.608 240.94 118.074 239.912C118.54 238.884 118.773 237.659 118.773 236.239C118.773 234.83 118.543 233.616 118.082 232.599C117.622 231.577 116.935 230.793 116.02 230.247C115.105 229.696 113.966 229.42 112.602 229.42H109.227V243.125Z" fill="#B10038"/>
<path d="M132.114 245V227.545H134.227V235.318H143.534V227.545H145.648V245H143.534V237.193H134.227V245H132.114Z" fill="#056624"/>
<path d="M283.159 233H281.045C280.92 232.392 280.702 231.858 280.389 231.398C280.082 230.938 279.707 230.551 279.264 230.239C278.827 229.92 278.341 229.682 277.807 229.523C277.273 229.364 276.716 229.284 276.136 229.284C275.08 229.284 274.122 229.551 273.264 230.085C272.412 230.619 271.733 231.406 271.227 232.446C270.727 233.486 270.477 234.761 270.477 236.273C270.477 237.784 270.727 239.06 271.227 240.099C271.733 241.139 272.412 241.926 273.264 242.46C274.122 242.994 275.08 243.261 276.136 243.261C276.716 243.261 277.273 243.182 277.807 243.023C278.341 242.864 278.827 242.628 279.264 242.315C279.707 241.997 280.082 241.608 280.389 241.148C280.702 240.682 280.92 240.148 281.045 239.545H283.159C283 240.437 282.71 241.236 282.29 241.94C281.869 242.645 281.347 243.244 280.722 243.739C280.097 244.227 279.395 244.599 278.616 244.855C277.844 245.111 277.017 245.239 276.136 245.239C274.648 245.239 273.324 244.875 272.165 244.148C271.006 243.42 270.094 242.386 269.429 241.045C268.764 239.705 268.432 238.114 268.432 236.273C268.432 234.432 268.764 232.841 269.429 231.5C270.094 230.159 271.006 229.125 272.165 228.398C273.324 227.67 274.648 227.307 276.136 227.307C277.017 227.307 277.844 227.435 278.616 227.69C279.395 227.946 280.097 228.321 280.722 228.815C281.347 229.304 281.869 229.901 282.29 230.605C282.71 231.304 283 232.102 283.159 233Z" fill="#B10038"/>
<path d="M135.206 91.5255L275.471 221.001L47.8802 221.001L135.206 91.5255Z" stroke="#056624" stroke-width="2"/>
<line x1="117.01" y1="220.861" x2="135.01" y2="92.8607" stroke="#056624" stroke-width="2"/>
<line x1="136" y1="93" x2="136" y2="220" stroke="#B10038" stroke-width="2" stroke-dasharray="7 7"/>
<path d="M136 206H151V220" stroke="#B10038"/>
</g>
<defs>
<clipPath id="clip0_45_2">
<rect width="320" height="320" fill="white"/>
</clipPath>
</defs>
</svg>
